<svg xmlns="http://www.w3.org/2000/svg" xmlns:xlink="http://www.w3.org/1999/xlink" viewBox="0 0 48 48" version="1.1">
<g id="surface1">
<path style=" fill:#64B5F6;" d="M 17.472656 8.578125 L 44.015625 17.488281 L 35.105469 44.035156 L 8.5625 35.125 Z "></path>
<path style=" fill:#1E88E5;" d="M 19.238281 12.496094 L 40.15625 19.308594 L 33.960938 38.324219 L 13.046875 31.511719 Z "></path>
<path style=" fill:#90CAF9;" d="M 10.878906 5.785156 L 38.414063 10.867188 L 33.332031 38.402344 L 5.796875 33.320313 Z "></path>
<path style=" fill:#42A5F5;" d="M 13.21875 9.433594 L 34.878906 13.277344 L 31.382813 32.96875 L 9.722656 29.128906 Z "></path>
<path style=" fill:#BBDEFB;" d="M 4 4 L 32 4 L 32 32 L 4 32 Z "></path>
<path style=" fill:#4CAF50;" d="M 7 7 L 29 7 L 29 27 L 7 27 Z "></path>
<path style=" fill:#FFFFFF;" d="M 16 13 C 16 11.898438 16.898438 11 18 11 C 19.101563 11 20 11.898438 20 13 C 20 14.101563 18 17 18 17 C 18 17 16 14.101563 16 13 Z "></path>
<path style=" fill:#FFFFFF;" d="M 20 21 C 20 22.101563 19.101563 23 18 23 C 16.898438 23 16 22.101563 16 21 C 16 19.898438 18 17 18 17 C 18 17 20 19.898438 20 21 Z "></path>
<path style=" fill:#FFFFFF;" d="M 13.5 16.699219 C 12.5 16.101563 12.199219 14.898438 12.800781 14 C 13.398438 13 14.601563 12.699219 15.5 13.300781 C 16.5 13.898438 18 17 18 17 C 18 17 14.5 17.300781 13.5 16.699219 Z "></path>
<path style=" fill:#FFFFFF;" d="M 22.5 17.300781 C 23.5 17.898438 23.800781 19.101563 23.199219 20 C 22.601563 21 21.398438 21.300781 20.5 20.699219 C 19.5 20.199219 18 17 18 17 C 18 17 21.5 16.699219 22.5 17.300781 Z "></path>
<path style=" fill:#FFFFFF;" d="M 22.5 16.699219 C 23.5 16.101563 23.800781 14.898438 23.199219 14 C 22.601563 13 21.398438 12.699219 20.5 13.300781 C 19.5 13.800781 18 17 18 17 C 18 17 21.5 17.300781 22.5 16.699219 Z "></path>
<path style=" fill:#FFFFFF;" d="M 13.5 17.300781 C 12.5 17.898438 12.199219 19.101563 12.800781 20 C 13.398438 21 14.601563 21.300781 15.5 20.699219 C 16.5 20.101563 18 17 18 17 C 18 17 14.5 16.699219 13.5 17.300781 Z "></path>
<path style=" fill:#FFC107;" d="M 20 17 C 20 18.105469 19.105469 19 18 19 C 16.894531 19 16 18.105469 16 17 C 16 15.894531 16.894531 15 18 15 C 19.105469 15 20 15.894531 20 17 Z "></path>
</g>
</svg>